{
  "source": "C:\\Users\\Peter\\Desktop\\stuff\\MIUN\\quantitative_research\\video_compression\\videos\\BVI-HD\\BVI-HD_CDVL_videos\\ORIG\\TreeTrunk_1920x1080_50fps.mp4",
  "output": "C:\\Users\\Peter\\Desktop\\stuff\\MIUN\\quantitative_research\\video_compression\\compressed_videos\\BVI-HD\\vp9\\4\\TreeTrunk_1920x1080_50fps_vp9.webm",
  "codec": "vp9",
  "ok": "Input #0, mov,mp4,m4a,3gp,3g2,mj2, from 'C:\\Users\\Peter\\Desktop\\stuff\\MIUN\\quantitative_research\\video_compression\\videos\\BVI-HD\\BVI-HD_CDVL_videos\\ORIG\\TreeTrunk_1920x1080_50fps.mp4':\n  Metadata:\n    major_brand     : isom\n    minor_version   : 512\n    compatible_brands: isomiso2avc1mp41\n    encoder         : Lavf54.28.101\n  Duration: 00:00:05.00, start: 0.000000, bitrate: 622415 kb/s\n  Stream #0:0[0x1](und): Video: h264 (High 4:4:4 Predictive) (avc1 / 0x31637661), yuv420p(progressive), 1920x1080, 622410 kb/s, 50 fps, 50 tbr, 50 tbn (default)\n    Metadata:\n      handler_name    : VideoHandler\n      vendor_id       : [0][0][0][0]\n[out#0/webm @ 0000020037e7f040] Codec AVOption b:a (set bitrate (in bits/s)) has not been used for any stream. The most likely reason is either wrong type (e.g. a video option with no video streams) or that it is a private option of some decoder which was not actually used for any stream.\nStream mapping:\n  Stream #0:0 -> #0:0 (h264 (native) -> vp9 (libvpx-vp9))\nPress [q] to stop, [?] for help\n[libvpx-vp9 @ 0000020037c80a80] v1.15.2-100-g40561f514\nOutput #0, webm, to 'C:\\Users\\Peter\\Desktop\\stuff\\MIUN\\quantitative_research\\video_compression\\compressed_videos\\BVI-HD\\vp9\\4\\TreeTrunk_1920x1080_50fps_vp9.webm':\n  Metadata:\n    major_brand     : isom\n    minor_version   : 512\n    compatible_brands: isomiso2avc1mp41\n    encoder         : Lavf62.3.100\n  Stream #0:0(und): Video: vp9, yuv420p(tv, progressive), 1920x1080, q=2-31, 4000 kb/s, 50 fps, 1k tbn (default)\n    Metadata:\n      encoder         : Lavc62.11.100 libvpx-vp9\n      handler_name    : VideoHandler\n      vendor_id       : [0][0][0][0]\n    Side data:\n      cpb: bitrate max/min/avg: 0/0/0 buffer size: 4000000 vbv_delay: N/A\nframe=    0 fps=0.0 q=0.0 size=       0KiB time=N/A bitrate=N/A speed=N/A elapsed=0:00:01.14    \nframe=    3 fps=1.7 q=51.0 size=       1KiB time=00:00:00.06 bitrate=  84.5kbits/s speed=0.0345x elapsed=0:00:01.73    \nframe=    8 fps=3.5 q=35.0 size=       1KiB time=00:00:00.16 bitrate=  31.7kbits/s speed=0.0709x elapsed=0:00:02.25    \nframe=   11 fps=4.0 q=34.0 size=       1KiB time=00:00:00.22 bitrate=  23.1kbits/s speed=0.079x elapsed=0:00:02.78    \nframe=   15 fps=4.5 q=33.0 size=       1KiB time=00:00:00.30 bitrate=  16.9kbits/s speed=0.0906x elapsed=0:00:03.31    \nframe=   18 fps=4.7 q=32.0 size=       1KiB time=00:00:00.36 bitrate=  14.1kbits/s speed=0.0935x elapsed=0:00:03.85    \nframe=   22 fps=5.0 q=33.0 size=       1KiB time=00:00:00.44 bitrate=  11.5kbits/s speed= 0.1x elapsed=0:00:04.37    \nframe=   24 fps=4.9 q=33.0 size=       1KiB time=00:00:00.48 bitrate=  10.6kbits/s speed=0.0978x elapsed=0:00:04.91    \nframe=   28 fps=5.2 q=32.0 size=       1KiB time=00:00:00.56 bitrate=   9.1kbits/s speed=0.103x elapsed=0:00:05.43    \nframe=   31 fps=5.2 q=32.0 size=       1KiB time=00:00:00.62 bitrate=   8.2kbits/s speed=0.104x elapsed=0:00:05.97    \nframe=   33 fps=5.1 q=32.0 size=       1KiB time=00:00:00.66 bitrate=   7.7kbits/s speed=0.102x elapsed=0:00:06.48    \nframe=   37 fps=5.3 q=32.0 size=       1KiB time=00:00:00.74 bitrate=   6.9kbits/s speed=0.106x elapsed=0:00:07.00    \nframe=   40 fps=5.3 q=31.0 size=       1KiB time=00:00:00.80 bitrate=   6.3kbits/s speed=0.106x elapsed=0:00:07.51    \nframe=   44 fps=5.5 q=31.0 size=       1KiB time=00:00:00.88 bitrate=   5.8kbits/s speed=0.109x elapsed=0:00:08.06    \nframe=   46 fps=5.4 q=31.0 size=       1KiB time=00:00:00.92 bitrate=   5.5kbits/s speed=0.107x elapsed=0:00:08.59    \nframe=   50 fps=5.5 q=31.0 size=       1KiB time=00:00:01.00 bitrate=   5.1kbits/s speed=0.11x elapsed=0:00:09.13    \nframe=   53 fps=5.5 q=30.0 size=       1KiB time=00:00:01.06 bitrate=   4.8kbits/s speed=0.11x elapsed=0:00:09.66    \nframe=   55 fps=5.4 q=30.0 size=       1KiB time=00:00:01.10 bitrate=   4.6kbits/s speed=0.108x elapsed=0:00:10.20    \nframe=   59 fps=5.5 q=34.0 size=       1KiB time=00:00:01.18 bitrate=   4.3kbits/s speed=0.11x elapsed=0:00:10.74    \nframe=   61 fps=5.4 q=30.0 size=       1KiB time=00:00:01.22 bitrate=   4.2kbits/s speed=0.108x elapsed=0:00:11.31    \nframe=   64 fps=5.4 q=30.0 size=       1KiB time=00:00:01.28 bitrate=   4.0kbits/s speed=0.108x elapsed=0:00:11.83    \nframe=   66 fps=5.3 q=31.0 size=       1KiB time=00:00:01.32 bitrate=   3.8kbits/s speed=0.106x elapsed=0:00:12.42    \nframe=   67 fps=5.1 q=21.0 size=       1KiB time=00:00:01.32 bitrate=   3.8kbits/s speed=0.101x elapsed=0:00:13.04    \nframe=   68 fps=5.0 q=31.0 size=       1KiB time=00:00:01.36 bitrate=   3.7kbits/s speed=0.0996x elapsed=0:00:13.66    \nframe=   70 fps=4.9 q=31.0 size=       1KiB time=00:00:01.40 bitrate=   3.6kbits/s speed=0.0982x elapsed=0:00:14.25    \nframe=   71 fps=4.8 q=29.0 size=       1KiB time=00:00:01.42 bitrate=   3.6kbits/s speed=0.0952x elapsed=0:00:14.91    \nframe=   74 fps=4.8 q=31.0 size=       1KiB time=00:00:01.48 bitrate=   3.4kbits/s speed=0.0955x elapsed=0:00:15.48    \nframe=   76 fps=4.7 q=31.0 size=       1KiB time=00:00:01.52 bitrate=   3.3kbits/s speed=0.0945x elapsed=0:00:16.08    \nframe=   78 fps=4.7 q=20.0 size=       1KiB time=00:00:01.56 bitrate=   3.3kbits/s speed=0.0936x elapsed=0:00:16.65    \nframe=   81 fps=4.7 q=33.0 size=       1KiB time=00:00:01.62 bitrate=   3.1kbits/s speed=0.0939x elapsed=0:00:17.25    \nframe=   83 fps=4.6 q=31.0 size=       1KiB time=00:00:01.66 bitrate=   3.1kbits/s speed=0.0929x elapsed=0:00:17.86    \nframe=   86 fps=4.7 q=31.0 size=       1KiB time=00:00:01.72 bitrate=   2.9kbits/s speed=0.0934x elapsed=0:00:18.42    \nframe=   88 fps=4.6 q=31.0 size=       1KiB time=00:00:01.76 bitrate=   2.9kbits/s speed=0.0927x elapsed=0:00:18.98    \nframe=   90 fps=4.6 q=31.0 size=       1KiB time=00:00:01.80 bitrate=   2.8kbits/s speed=0.0921x elapsed=0:00:19.54    \nframe=   92 fps=4.6 q=41.0 size=       1KiB time=00:00:01.84 bitrate=   2.8kbits/s speed=0.0914x elapsed=0:00:20.12    \nframe=   94 fps=4.5 q=31.0 size=       1KiB time=00:00:01.88 bitrate=   2.7kbits/s speed=0.0908x elapsed=0:00:20.70    \nframe=   96 fps=4.5 q=30.0 size=       1KiB time=00:00:01.92 bitrate=   2.6kbits/s speed=0.0903x elapsed=0:00:21.25    \nframe=   97 fps=4.4 q=32.0 size=       1KiB time=00:00:01.94 bitrate=   2.6kbits/s speed=0.0887x elapsed=0:00:21.86    \nframe=   99 fps=4.4 q=34.0 size=       1KiB time=00:00:01.98 bitrate=   2.6kbits/s speed=0.0882x elapsed=0:00:22.44    \nframe=  100 fps=4.3 q=25.0 size=       1KiB time=00:00:02.00 bitrate=   2.5kbits/s speed=0.0867x elapsed=0:00:23.06    \nframe=  102 fps=4.3 q=30.0 size=       1KiB time=00:00:02.04 bitrate=   2.5kbits/s speed=0.0864x elapsed=0:00:23.59    \nframe=  103 fps=4.3 q=31.0 size=       1KiB time=00:00:02.06 bitrate=   2.5kbits/s speed=0.0852x elapsed=0:00:24.19    \nframe=  105 fps=4.2 q=34.0 size=       1KiB time=00:00:02.10 bitrate=   2.4kbits/s speed=0.0849x elapsed=0:00:24.74    \nframe=  107 fps=4.2 q=33.0 size=       1KiB time=00:00:02.14 bitrate=   2.4kbits/s speed=0.0847x elapsed=0:00:25.28    \nframe=  109 fps=4.2 q=33.0 size=       1KiB time=00:00:02.18 bitrate=   2.3kbits/s speed=0.0843x elapsed=0:00:25.86    \nframe=  110 fps=4.2 q=31.0 size=       1KiB time=00:00:02.20 bitrate=   2.3kbits/s speed=0.0832x elapsed=0:00:26.42    \nframe=  113 fps=4.2 q=30.0 size=       1KiB time=00:00:02.24 bitrate=   2.3kbits/s speed=0.083x elapsed=0:00:26.98    \nframe=  114 fps=4.1 q=30.0 size=       1KiB time=00:00:02.28 bitrate=   2.2kbits/s speed=0.0828x elapsed=0:00:27.54    \nframe=  116 fps=4.1 q=30.0 size=       1KiB time=00:00:02.32 bitrate=   2.2kbits/s speed=0.0825x elapsed=0:00:28.12    \nframe=  119 fps=4.1 q=32.0 size=       1KiB time=00:00:02.36 bitrate=   2.1kbits/s speed=0.0822x elapsed=0:00:28.70    \nframe=  119 fps=4.1 q=32.0 size=       1KiB time=00:00:02.38 bitrate=   2.1kbits/s speed=0.0814x elapsed=0:00:29.22    \nframe=  121 fps=4.1 q=30.0 size=       1KiB time=00:00:02.42 bitrate=   2.1kbits/s speed=0.0813x elapsed=0:00:29.78    \nframe=  123 fps=4.0 q=35.0 size=       1KiB time=00:00:02.46 bitrate=   2.1kbits/s speed=0.0809x elapsed=0:00:30.40    \nframe=  125 fps=4.0 q=31.0 size=       1KiB time=00:00:02.50 bitrate=   2.0kbits/s speed=0.0808x elapsed=0:00:30.95    \nframe=  127 fps=4.0 q=31.0 size=       1KiB time=00:00:02.54 bitrate=   2.0kbits/s speed=0.0806x elapsed=0:00:31.50    \nframe=  128 fps=4.0 q=31.0 size=       1KiB time=00:00:02.56 bitrate=   2.0kbits/s speed=0.0798x elapsed=0:00:32.07    \nframe=  130 fps=4.0 q=30.0 size=    2560KiB time=00:00:02.60 bitrate=8066.0kbits/s speed=0.0796x elapsed=0:00:32.67    \nframe=  133 fps=4.0 q=33.0 size=    2560KiB time=00:00:02.66 bitrate=7884.0kbits/s speed=0.0799x elapsed=0:00:33.29    \nframe=  135 fps=4.0 q=31.0 size=    2560KiB time=00:00:02.70 bitrate=7767.2kbits/s speed=0.0797x elapsed=0:00:33.89    \nframe=  137 fps=4.0 q=31.0 size=    2560KiB time=00:00:02.74 bitrate=7653.8kbits/s speed=0.0794x elapsed=0:00:34.51    \nframe=  139 fps=4.0 q=31.0 size=    2560KiB time=00:00:02.78 bitrate=7543.7kbits/s speed=0.0793x elapsed=0:00:35.07    \nframe=  141 fps=4.0 q=31.0 size=    2560KiB time=00:00:02.80 bitrate=7489.8kbits/s speed=0.0786x elapsed=0:00:35.61    \nframe=  142 fps=3.9 q=27.0 size=    2560KiB time=00:00:02.84 bitrate=7384.3kbits/s speed=0.0784x elapsed=0:00:36.24    \nframe=  145 fps=3.9 q=32.0 size=    2560KiB time=00:00:02.90 bitrate=7231.6kbits/s speed=0.0788x elapsed=0:00:36.79    \nframe=  147 fps=3.9 q=31.0 size=    2560KiB time=00:00:02.94 bitrate=7133.2kbits/s speed=0.0787x elapsed=0:00:37.37    \nframe=  149 fps=3.9 q=31.0 size=    2560KiB time=00:00:02.98 bitrate=7037.4kbits/s speed=0.0785x elapsed=0:00:37.95    \nframe=  150 fps=3.9 q=31.0 size=    2560KiB time=00:00:03.00 bitrate=6990.5kbits/s speed=0.0778x elapsed=0:00:38.55    \nframe=  152 fps=3.9 q=31.0 size=    2560KiB time=00:00:03.04 bitrate=6898.5kbits/s speed=0.0777x elapsed=0:00:39.14    \nframe=  154 fps=3.9 q=43.0 size=    2560KiB time=00:00:03.08 bitrate=6808.9kbits/s speed=0.0776x elapsed=0:00:39.69    \nframe=  156 fps=3.9 q=30.0 size=    2560KiB time=00:00:03.12 bitrate=6721.6kbits/s speed=0.0776x elapsed=0:00:40.21    \nframe=  158 fps=3.9 q=31.0 size=    2560KiB time=00:00:03.16 bitrate=6636.6kbits/s speed=0.0774x elapsed=0:00:40.83    \nframe=  160 fps=3.9 q=32.0 size=    2560KiB time=00:00:03.20 bitrate=6553.6kbits/s speed=0.0773x elapsed=0:00:41.38    \nframe=  161 fps=3.8 q=30.0 size=    2560KiB time=00:00:03.22 bitrate=6512.9kbits/s speed=0.0768x elapsed=0:00:41.92    \nframe=  163 fps=3.8 q=32.0 size=    2560KiB time=00:00:03.26 bitrate=6433.0kbits/s speed=0.0767x elapsed=0:00:42.49    \nframe=  166 fps=3.9 q=29.0 size=    2560KiB time=00:00:03.32 bitrate=6316.7kbits/s speed=0.0771x elapsed=0:00:43.04    \nframe=  168 fps=3.8 q=30.0 size=    2560KiB time=00:00:03.36 bitrate=6241.5kbits/s speed=0.077x elapsed=0:00:43.65    \nframe=  170 fps=3.8 q=30.0 size=    2560KiB time=00:00:03.40 bitrate=6168.1kbits/s speed=0.0769x elapsed=0:00:44.22    \nframe=  172 fps=3.8 q=30.0 size=    2560KiB time=00:00:03.44 bitrate=6096.4kbits/s speed=0.0769x elapsed=0:00:44.74    \nframe=  173 fps=3.8 q=20.0 size=    2560KiB time=00:00:03.46 bitrate=6061.1kbits/s speed=0.0764x elapsed=0:00:45.31    \nframe=  176 fps=3.8 q=32.0 size=    2560KiB time=00:00:03.52 bitrate=5957.8kbits/s speed=0.0767x elapsed=0:00:45.88    \nframe=  178 fps=3.8 q=31.0 size=    2560KiB time=00:00:03.56 bitrate=5890.9kbits/s speed=0.0767x elapsed=0:00:46.43    \nframe=  180 fps=3.8 q=31.0 size=    2560KiB time=00:00:03.60 bitrate=5825.4kbits/s speed=0.0767x elapsed=0:00:46.95    \nframe=  182 fps=3.8 q=31.0 size=    2560KiB time=00:00:03.64 bitrate=5761.4kbits/s speed=0.0767x elapsed=0:00:47.46    \nframe=  184 fps=3.8 q=22.0 size=    2560KiB time=00:00:03.68 bitrate=5698.8kbits/s speed=0.0767x elapsed=0:00:47.99    \nframe=  187 fps=3.9 q=32.0 size=    2560KiB time=00:00:03.74 bitrate=5607.4kbits/s speed=0.0771x elapsed=0:00:48.53    \nframe=  190 fps=3.9 q=31.0 size=    2560KiB time=00:00:03.80 bitrate=5518.8kbits/s speed=0.0774x elapsed=0:00:49.07    \nframe=  192 fps=3.9 q=31.0 size=    2560KiB time=00:00:03.84 bitrate=5461.3kbits/s speed=0.0774x elapsed=0:00:49.62    \nframe=  194 fps=3.9 q=31.0 size=    2560KiB time=00:00:03.88 bitrate=5405.0kbits/s speed=0.0773x elapsed=0:00:50.18    \nframe=  196 fps=3.9 q=31.0 size=    2560KiB time=00:00:03.92 bitrate=5349.9kbits/s speed=0.0772x elapsed=0:00:50.75    \nframe=  198 fps=3.9 q=36.0 size=    2560KiB time=00:00:03.96 bitrate=5295.8kbits/s speed=0.0772x elapsed=0:00:51.29    \nframe=  200 fps=3.9 q=32.0 size=    2560KiB time=00:00:04.00 bitrate=5242.9kbits/s speed=0.0772x elapsed=0:00:51.83    \nframe=  202 fps=3.9 q=33.0 size=    2560KiB time=00:00:04.04 bitrate=5191.0kbits/s speed=0.0771x elapsed=0:00:52.37    \nframe=  204 fps=3.9 q=35.0 size=    2560KiB time=00:00:04.08 bitrate=5140.1kbits/s speed=0.077x elapsed=0:00:52.98    \nframe=  205 fps=3.8 q=36.0 size=    2560KiB time=00:00:04.10 bitrate=5115.0kbits/s speed=0.0765x elapsed=0:00:53.56    \nframe=  207 fps=3.8 q=36.0 size=    2560KiB time=00:00:04.14 bitrate=5065.6kbits/s speed=0.0764x elapsed=0:00:54.15    \nframe=  209 fps=3.8 q=32.0 size=    2560KiB time=00:00:04.18 bitrate=5017.1kbits/s speed=0.0764x elapsed=0:00:54.71    \nframe=  211 fps=3.8 q=33.0 size=    2560KiB time=00:00:04.22 bitrate=4969.6kbits/s speed=0.0764x elapsed=0:00:55.26    \nframe=  213 fps=3.8 q=33.0 size=    2560KiB time=00:00:04.26 bitrate=4922.9kbits/s speed=0.0763x elapsed=0:00:55.79    \nframe=  215 fps=3.8 q=33.0 size=    2560KiB time=00:00:04.30 bitrate=4877.1kbits/s speed=0.0762x elapsed=0:00:56.40    \nframe=  216 fps=3.8 q=34.0 size=    2560KiB time=00:00:04.32 bitrate=4854.5kbits/s speed=0.0758x elapsed=0:00:57.01    \nframe=  218 fps=3.8 q=34.0 size=    2560KiB time=00:00:04.36 bitrate=4810.0kbits/s speed=0.0756x elapsed=0:00:57.64    \nframe=  220 fps=3.8 q=32.0 size=    2560KiB time=00:00:04.40 bitrate=4766.3kbits/s speed=0.0756x elapsed=0:00:58.23    \nframe=  223 fps=3.8 q=33.0 size=    2560KiB time=00:00:04.46 bitrate=4702.1kbits/s speed=0.0759x elapsed=0:00:58.78    \nframe=  225 fps=3.8 q=33.0 size=    2560KiB time=00:00:04.50 bitrate=4660.3kbits/s speed=0.0759x elapsed=0:00:59.32    \nframe=  226 fps=3.8 q=33.0 size=    2560KiB time=00:00:04.52 bitrate=4639.7kbits/s speed=0.0755x elapsed=0:00:59.87    \nframe=  226 fps=3.7 q=33.0 size=    2560KiB time=00:00:04.52 bitrate=4639.7kbits/s speed=0.0748x elapsed=0:01:00.44    \nframe=  226 fps=3.7 q=33.0 size=    2560KiB time=00:00:04.52 bitrate=4639.7kbits/s speed=0.0741x elapsed=0:01:01.00    \nframe=  226 fps=3.7 q=33.0 size=    2560KiB time=00:00:04.52 bitrate=4639.7kbits/s speed=0.0734x elapsed=0:01:01.56    \nframe=  226 fps=3.6 q=33.0 size=    2560KiB time=00:00:04.52 bitrate=4639.7kbits/s speed=0.0728x elapsed=0:01:02.08    \nframe=  226 fps=3.6 q=33.0 size=    2560KiB time=00:00:04.52 bitrate=4639.7kbits/s speed=0.0722x elapsed=0:01:02.63    \nframe=  226 fps=3.6 q=33.0 size=    2560KiB time=00:00:04.52 bitrate=4639.7kbits/s speed=0.0716x elapsed=0:01:03.13    \nframe=  226 fps=3.5 q=33.0 size=    2560KiB time=00:00:04.52 bitrate=4639.7kbits/s speed=0.071x elapsed=0:01:03.68    \nframe=  226 fps=3.5 q=33.0 size=    2560KiB time=00:00:04.52 bitrate=4639.7kbits/s speed=0.0704x elapsed=0:01:04.23    \nframe=  226 fps=3.5 q=33.0 size=    2560KiB time=00:00:04.52 bitrate=4639.7kbits/s speed=0.0697x elapsed=0:01:04.82    \n[out#0/webm @ 0000020037e7f040] video:5754KiB audio:0KiB subtitle:0KiB other streams:0KiB global headers:0KiB muxing overhead: 0.042043%\nframe=  250 fps=3.9 q=34.0 Lsize=    5756KiB time=00:00:05.00 bitrate=9430.6kbits/s speed=0.077x elapsed=0:01:04.89    \n",
  "seconds": 65.4449110031128,
  "probe_out": {}
}